<?xml version="1.0" encoding="UTF-8"?>
<svg id="Layer_1" data-name="Layer 1" xmlns="http://www.w3.org/2000/svg" viewBox="0 0 533.31 533.31">
  <defs>
    <style>
      .cls-1, .cls-2 {
        stroke: #000;
        stroke-miterlimit: 10;
        stroke-width: 6px;
      }

      .cls-2 {
        fill: #fff;
      }
    </style>
  </defs>
  <circle class="cls-2" cx="266.65" cy="266.65" r="256"/>
  <path class="cls-1" d="m374.82,278.35c.1,5.47-5.19,22.37-16.81,35.33-11.62,12.96-24.34,9.06-25.39,8.76s-1.34-1.94-3.43-1.64-4.17,2.68-8.19,3.13-7.6.74-11.32-.6c-1.94.3-2.23.31-3.13.97s-7.75,4.69-9.39,4.99c0,3.13-.6,19.37,0,24.29s1.64,11.17,3.28,15.64c1.64,4.47,1.19,4.62,3.28,4.32s5.81.15,6.85,1.79.6,2.83,2.38,3.58,26.37,7.45,43.21,8.34c11.62.3,18.62,1.19,22.65,8.49.6,3.43,3.28,5.66,4.92,6.11s3.58.89,5.21,2.53.45,3.58,2.38,5.07c1.94,1.49,6.41,3.72,11.03,5.96,4.62,2.23,6.56,5.81,6.85,7s.74,4.77.74,4.77c0,0-3.87,0-4.77-.89s-1.19-2.53-1.19-2.53c0,0-2.68.45-3.28,1.49s.3,1.19-3.43.3-5.07-1.64-7.9-3.72-7.15-7.45-10.88-7.3c1.79,3.58,2.53,3.58,4.62,4.77s3.58,2.53,3.58,2.53l-3.13,1.94s-1.94.89-6.41-.3c-4.47-1.19-5.07-1.94-5.51-4.62s0-4.02-1.19-6.26-1.79-6.85-9.68-9.24c-7.9-2.38-28.91-9.24-43.51-10.73-14.6-1.49-9.83-1.19-12.22-.6s-6.85,1.94-11.47-.6c-4.62-2.53-7.3-5.96-7.6-8.79s-.74-4.77,0-8.34,1.49-8.64.74-11.62-6.11-24.29-8.64-27.86c-5.66.45-22.05-.3-22.05-.3,0,0-1.04-.3-7.6,2.53-6.56,2.83-15.85,5.98-20.32,8.66-4.47,2.68-6.26,4.22-7,5.71.05,1.3-.53,3.35-1.21,3.94s-5.42,1.05-5.42,1.05c0,0-2.54,2.54-3.58,4.33-2.98,4.17-23.99,54.38-28.91,65.11-5.89,14.15-4.25,11.92-16.39,11.92s-3.5.13-3.5.13c0,0-5.36,2.55-7.3,2.55s-8.19-1.04-11.47,0-7.15,4.02-10.13,4.47c-2.98.45-2.15-.58-3.64-1.63-1.74-.09-6.2-.05-6.2-.05,0,0,.76-2.83,3.44-4.73,3.58-2.53,11.03-7,15.05-9.24,4.02-2.23,7.6-3.43,10.13-4.02,2.53-.6,8.05-2.68,13.26-4.32s8.49-3.58,12.96-13.71c4.47-10.13,21.9-48.42,22.35-50.51.28-1.29,1.62-2.81,2.09-6.56.29-2.32-1.08-5.67.74-9.83,4.77-10.88,9.39-8.79,11.47-8.79s7.45.15,11.47-.6c4.02-.74,6.7-1.19,10.73-3.43,4.02-2.23,4.92-3.87,4.92-3.87l-8.64-1.49s-8.05.3-10.88-1.94-6.7-6.85-6.7-6.85l-3.28-3.13.45,3.72s-2.23-3.87-2.83-4.47-3.72-2.83-4.92-4.92-3.28-10.88-3.28-10.88l-2.68,5.66-.74-8.19-2.23,3.13-1.19-7-2.09,3.58-1.49-6.26-2.53,1.94-1.04-4.47-2.53-1.49s-6.11-4.02-7.15-4.17-1.94,1.49-1.94,1.49l.6,5.21-5.3-2.72-3.04-5.17s1.02,1.74-4.18,3.27c-8.93,0-9.51-.99-10.83-1.71-.57-2.85-2.42-4.39-2.42-4.39h-8.94l-.15-2.98-3.43,1.34.3-4.47h-6.11l.45-4.92h-3.87s1.34-4.02,11.17-9.98c9.83-5.96,10.88-7.15,20.11-7.45,9.24-.3,14.3,1.19,20.11,3.58,5.81,2.38,16.84,5.96,19.07,7.6,4.92-4.32,12.37-8.64,14.9-8.64.45-1.04,2.69-5.36,7.81-7.65,15.34-6.87,46.99-14.78,57.16-15.45,13.56-.89,3.43-.6,16.99.89,13.56,1.49,23.54,3.28,30.25,5.51,5.46,1.82,10.88,4.17,14.9.89,1.88-.79,5.13-.58,7.75-2.23,13.34-10.9,15.09-14.06,18.96-18.23,3.87-4.17,8.75-10.83,9.8-19.62s1.94-25.33-4.62-38.29c-6.56-12.96-12.52-19.67-15.05-30.1-2.53-10.43-3.58-26.52-2.68-31.74s2.23-9.68,2.98-13.26,4.32-6.41,8.64-7.15c4.32-.74,7.75.6,9.68,2.09s5.06,2.73,5.81,4.47c.15.74-.6,2.83,3.58,3.58s6.97,1.81,6.97,1.81c0,0,6.8,1.87,1.35,3.36-5.51.89-8.92-.31-10.56.74s-3.13,4.38-4.17,4.83-3.13.15-5.21,1.79-4.17,2.98-5.51,6.26-2.38,6.85-1.49,11.62,3.72,13.71,6.26,18.77c2.53,5.07,8.79,17.73,10.58,20.71s6.85,12.81,7.3,23.39.45,19.22,0,23.84c-.45,4.62-4.71,22.45-15.44,37.35-3.54,6.14-10.09,13.86-10.72,15.22s-1.31,2.12-.7,3.32c2.01,3.93,5.59,9.62,6.39,12.7,1,2.89,3.04,7.01,3.14,12.48Z"/>
</svg>